<svg width="280" height="36" viewBox="0 0 280 36" fill="none" xmlns="http://www.w3.org/2000/svg">
  <path d="M0 27.3688L0.958175 21.6198L14.7985 4.37262H20.0152L18.7376 12.038H15.7567L8.30418 21.4068L8.25095 21.6198H24.4335L23.4753 27.3688H0ZM12.5627 31.6274L13.5741 25.6122L14.1597 23.1103L17.2472 4.37262H24.1673L19.6426 31.6274H12.5627Z" fill="#13141A"/>
  <path d="M34.6068 31.6274H23.9604L28.4851 4.37262H38.7056C41.5092 4.37262 43.8514 4.936 45.7322 6.06274C47.6131 7.18948 48.9483 8.79975 49.7379 10.8935C50.5275 12.9873 50.6828 15.4804 50.2037 18.3726C49.7424 21.1584 48.8064 23.5406 47.3957 25.519C45.9939 27.4975 44.2018 29.0101 42.0193 30.057C39.8457 31.1039 37.3748 31.6274 34.6068 31.6274ZM32.3976 25.346H35.0858C36.4344 25.346 37.6365 25.1109 38.6923 24.6407C39.7569 24.1616 40.6441 23.3631 41.3539 22.2452C42.0725 21.1185 42.5915 19.5792 42.9109 17.6274C43.2126 15.782 43.2037 14.358 42.8843 13.3555C42.5649 12.3441 41.9572 11.6432 41.0611 11.2529C40.1651 10.8536 39.0073 10.654 37.5877 10.654H34.8463L32.3976 25.346Z" fill="#13141A"/>
  <path d="M59.4188 32C57.2363 32 55.4264 31.583 53.9892 30.7491C52.5519 29.9062 51.5405 28.6996 50.9549 27.1293C50.3694 25.5501 50.2629 23.6603 50.6356 21.4601C50.9904 19.3485 51.7224 17.5032 52.8314 15.924C53.9492 14.3447 55.3555 13.116 57.05 12.2376C58.7534 11.3593 60.6609 10.9202 62.7724 10.9202C64.3162 10.9202 65.6691 11.1597 66.8314 11.6388C68.0025 12.1179 68.9562 12.8143 69.6926 13.7281C70.429 14.642 70.9258 15.7465 71.1831 17.0418C71.4492 18.3283 71.4492 19.7833 71.1831 21.4068L70.9169 23.1103H52.6584L53.2971 19.0646H64.7952C64.884 18.4791 64.8263 17.9645 64.6222 17.5209C64.4271 17.0684 64.1121 16.718 63.6774 16.4696C63.2515 16.2123 62.7369 16.0837 62.1337 16.0837C61.5304 16.0837 60.9626 16.2123 60.4302 16.4696C59.9068 16.7269 59.4587 17.0862 59.0861 17.5475C58.7224 18.0089 58.4784 18.5501 58.3542 19.1711L57.5557 23.4297C57.4492 24.0862 57.4892 24.6717 57.6755 25.1863C57.8618 25.7009 58.1856 26.1046 58.647 26.3973C59.1083 26.6901 59.7027 26.8365 60.4302 26.8365C60.9271 26.8365 61.3973 26.77 61.8409 26.6369C62.2934 26.4949 62.6926 26.2909 63.0386 26.0247C63.3935 25.7497 63.6774 25.417 63.8903 25.0266H70.5975C70.1184 26.4461 69.3599 27.6793 68.3219 28.7262C67.2927 29.7643 66.024 30.5716 64.5158 31.1483C63.0164 31.7161 61.3174 32 59.4188 32Z" fill="#13141A"/>
  <path d="M94.0988 11.1863L83.825 31.6274H75.3079L71.8478 11.1863H79.3003L80.3649 24.7072H80.5779L86.114 11.1863H94.0988Z" fill="#13141A"/>
  <path d="M124.633 14.5932H117.233C117.287 13.9632 117.251 13.3954 117.127 12.8897C117.003 12.384 116.79 11.9493 116.488 11.5856C116.186 11.2129 115.792 10.929 115.304 10.7338C114.816 10.5387 114.235 10.4411 113.56 10.4411C112.265 10.4411 111.107 10.7649 110.087 11.4125C109.067 12.0513 108.219 12.9696 107.545 14.1673C106.871 15.3561 106.392 16.7757 106.108 18.4259C105.859 20.0228 105.851 21.3492 106.081 22.4049C106.321 23.4607 106.787 24.2503 107.479 24.7738C108.18 25.2972 109.089 25.5589 110.207 25.5589C110.952 25.5589 111.635 25.4702 112.256 25.2928C112.886 25.1153 113.445 24.8625 113.933 24.5342C114.43 24.1971 114.851 23.7978 115.197 23.3365C115.552 22.8663 115.823 22.3473 116.009 21.7795H123.462C123.178 22.9328 122.672 24.1128 121.944 25.3194C121.217 26.5171 120.276 27.6217 119.123 28.6331C117.97 29.6356 116.612 30.4474 115.051 31.0684C113.489 31.6895 111.733 32 109.781 32C107.226 32 105.021 31.4411 103.167 30.3232C101.321 29.2053 99.9818 27.5729 99.1478 25.4259C98.3227 23.2788 98.1586 20.6616 98.6554 17.5741C99.1523 14.5932 100.133 12.0957 101.596 10.0817C103.06 8.06781 104.839 6.5507 106.933 5.53042C109.027 4.51014 111.254 4 113.614 4C115.397 4 116.994 4.23511 118.404 4.70532C119.824 5.17554 121.017 5.86312 121.984 6.76806C122.96 7.66413 123.679 8.76869 124.14 10.0817C124.602 11.3948 124.766 12.8986 124.633 14.5932Z" fill="#13141A"/>
  <path d="M133.222 32C131.004 32 129.177 31.5608 127.739 30.6825C126.311 29.7953 125.308 28.5621 124.732 26.9829C124.155 25.3948 124.04 23.5539 124.386 21.4601C124.732 19.3663 125.455 17.5298 126.555 15.9506C127.655 14.3625 129.07 13.1293 130.8 12.2509C132.53 11.3638 134.509 10.9202 136.736 10.9202C138.945 10.9202 140.763 11.3638 142.192 12.2509C143.629 13.1293 144.636 14.3625 145.213 15.9506C145.798 17.5298 145.918 19.3663 145.572 21.4601C145.226 23.5539 144.499 25.3948 143.39 26.9829C142.281 28.5621 140.861 29.7953 139.131 30.6825C137.41 31.5608 135.44 32 133.222 32ZM134.127 26.5703C134.766 26.5703 135.347 26.3619 135.871 25.9449C136.403 25.5279 136.855 24.9335 137.228 24.1616C137.609 23.3897 137.889 22.4715 138.066 21.4068C138.244 20.3333 138.27 19.4151 138.146 18.6521C138.022 17.8802 137.765 17.2858 137.374 16.8688C136.984 16.4518 136.469 16.2433 135.831 16.2433C135.192 16.2433 134.606 16.4518 134.074 16.8688C133.542 17.2858 133.089 17.8802 132.717 18.6521C132.344 19.4151 132.069 20.3333 131.891 21.4068C131.714 22.4715 131.683 23.3897 131.798 24.1616C131.923 24.9335 132.18 25.5279 132.57 25.9449C132.969 26.3619 133.488 26.5703 134.127 26.5703Z" fill="#13141A"/>
  <path d="M154.291 20.1293L152.375 31.6274H145.029L148.436 11.1863H155.409L154.771 15.0722H154.983C155.631 13.7681 156.576 12.7522 157.818 12.0247C159.069 11.2883 160.449 10.9202 161.957 10.9202C163.403 10.9202 164.605 11.2484 165.563 11.9049C166.521 12.5615 167.2 13.4664 167.599 14.6198C167.999 15.7731 168.07 17.0951 167.812 18.5856L165.63 31.6274H158.284L160.2 20.1293C160.369 19.1179 160.245 18.3238 159.828 17.7471C159.419 17.1705 158.745 16.8821 157.805 16.8821C157.21 16.8821 156.665 17.0152 156.168 17.2814C155.68 17.5387 155.272 17.9113 154.944 18.3992C154.624 18.8783 154.407 19.455 154.291 20.1293Z" fill="#13141A"/>
  <path d="M176.645 20.1293L174.729 31.6274H167.383L170.789 11.1863H177.763L177.124 15.0722H177.337C177.985 13.7681 178.929 12.7522 180.171 12.0247C181.422 11.2883 182.802 10.9202 184.31 10.9202C185.756 10.9202 186.959 11.2484 187.917 11.9049C188.875 12.5615 189.554 13.4664 189.953 14.6198C190.352 15.7731 190.423 17.0951 190.166 18.5856L187.983 31.6274H180.637L182.554 20.1293C182.722 19.1179 182.598 18.3238 182.181 17.7471C181.773 17.1705 181.099 16.8821 180.158 16.8821C179.564 16.8821 179.018 17.0152 178.521 17.2814C178.033 17.5387 177.625 17.9113 177.297 18.3992C176.978 18.8783 176.76 19.455 176.645 20.1293Z" fill="#13141A"/>
  <path d="M199.424 32C197.242 32 195.432 31.583 193.995 30.7491C192.557 29.9062 191.546 28.6996 190.96 27.1293C190.375 25.5501 190.268 23.6603 190.641 21.4601C190.996 19.3485 191.728 17.5032 192.837 15.924C193.955 14.3447 195.361 13.116 197.055 12.2376C198.759 11.3593 200.666 10.9202 202.778 10.9202C204.322 10.9202 205.674 11.1597 206.837 11.6388C208.008 12.1179 208.962 12.8143 209.698 13.7281C210.434 14.642 210.931 15.7465 211.188 17.0418C211.455 18.3283 211.455 19.7833 211.188 21.4068L210.922 23.1103H192.664L193.302 19.0646H204.801C204.889 18.4791 204.832 17.9645 204.628 17.5209C204.432 17.0684 204.117 16.718 203.683 16.4696C203.257 16.2123 202.742 16.0837 202.139 16.0837C201.536 16.0837 200.968 16.2123 200.436 16.4696C199.912 16.7269 199.464 17.0862 199.091 17.5475C198.728 18.0089 198.484 18.5501 198.36 19.1711L197.561 23.4297C197.455 24.0862 197.495 24.6717 197.681 25.1863C197.867 25.7009 198.191 26.1046 198.652 26.3973C199.114 26.6901 199.708 26.8365 200.436 26.8365C200.932 26.8365 201.403 26.77 201.846 26.6369C202.299 26.4949 202.698 26.2909 203.044 26.0247C203.399 25.7497 203.683 25.417 203.896 25.0266H210.603C210.124 26.4461 209.365 27.6793 208.327 28.7262C207.298 29.7643 206.029 30.5716 204.521 31.1483C203.022 31.7161 201.323 32 199.424 32Z" fill="#13141A"/>
  <path d="M220.404 32C218.186 32 216.358 31.5608 214.921 30.6825C213.483 29.7953 212.476 28.5621 211.9 26.9829C211.323 25.3948 211.212 23.5539 211.567 21.4601C211.904 19.3663 212.623 17.5298 213.723 15.9506C214.832 14.3625 216.251 13.1293 217.981 12.2509C219.72 11.3638 221.699 10.9202 223.917 10.9202C225.922 10.9202 227.594 11.2839 228.934 12.0114C230.283 12.73 231.245 13.7503 231.822 15.0722C232.407 16.3853 232.558 17.929 232.274 19.7034H225.461C225.54 18.6388 225.367 17.8226 224.942 17.2548C224.525 16.6869 223.917 16.403 223.118 16.403C222.462 16.403 221.859 16.5894 221.308 16.962C220.767 17.3257 220.302 17.8802 219.911 18.6255C219.53 19.3619 219.25 20.289 219.073 21.4068C218.895 22.5247 218.873 23.4563 219.006 24.2015C219.148 24.9379 219.423 25.4924 219.831 25.865C220.248 26.2288 220.776 26.4106 221.415 26.4106C221.965 26.4106 222.471 26.2864 222.932 26.038C223.402 25.7807 223.806 25.4081 224.143 24.9202C224.489 24.4233 224.751 23.82 224.928 23.1103H231.742C231.405 24.9202 230.726 26.4905 229.706 27.8213C228.686 29.1521 227.386 30.1812 225.807 30.9087C224.227 31.6362 222.426 32 220.404 32Z" fill="#13141A"/>
  <path d="M247.059 11.1863L246.154 16.5095H232.686L233.591 11.1863H247.059ZM236.998 6.28897H244.344L241.23 25.0532C241.186 25.3371 241.194 25.5767 241.256 25.7719C241.319 25.9582 241.443 26.1001 241.629 26.1977C241.824 26.2864 242.082 26.3308 242.401 26.3308C242.614 26.3308 242.876 26.3042 243.186 26.251C243.497 26.1888 243.732 26.1445 243.891 26.1179L244.104 31.2814C243.732 31.3878 243.23 31.5076 242.601 31.6407C241.98 31.7826 241.256 31.8758 240.431 31.9202C238.71 32 237.308 31.8181 236.226 31.3745C235.153 30.9309 234.407 30.2389 233.99 29.2985C233.582 28.3492 233.511 27.1648 233.777 25.7452L236.998 6.28897Z" fill="#13141A"/>
  <path d="M262.059 7.2H267.809V36H262.059V7.2Z" fill="#F34B4B"/>
  <path d="M267.809 3.6H273.559V32.4H267.809V3.6Z" fill="#13141A"/>
  <path d="M273.559 0H279.309V28.8H273.559V0Z" fill="#C3C4CF"/>
  <path d="M273.559 0H279.309V28.8H273.559V0Z" fill="#C3C4CF"/>
  <path d="M273.559 0H279.309V28.8H273.559V0Z" fill="#C3C4CF"/>
</svg>
